<svg id="Group_12" data-name="Group 12" xmlns="http://www.w3.org/2000/svg" xmlns:xlink="http://www.w3.org/1999/xlink" width="129.394" height="108.594" viewBox="0 0 129.394 108.594">
  <defs>
    <clipPath id="clip-path">
      <rect id="Rectangle_11" data-name="Rectangle 11" width="129.394" height="108.594" fill="#21e09d"/>
    </clipPath>
  </defs>
  <path id="Path_17" data-name="Path 17" d="M0,3.682V6.891H3.662V22.12H5.453V6.891h30.39V22.12h1.791V6.891h3.188V3.682Z" transform="translate(0 11.236)" fill="#21e09d"/>
  <g id="Group_11" data-name="Group 11">
    <g id="Group_10" data-name="Group 10" clip-path="url(#clip-path)">
      <path id="Path_18" data-name="Path 18" d="M3.035,11.611V14.2H33.89a2.726,2.726,0,0,0-2.723-2.735,2.693,2.693,0,0,0-2.24,1.26L30.791,0H1.256L3.067,11.611ZM17.016,6.454a1.656,1.656,0,0,1,1.7,1.6,1.7,1.7,0,0,1-3.4,0,1.653,1.653,0,0,1,1.7-1.6" transform="translate(3.833)" fill="#21e09d"/>
      <path id="Path_19" data-name="Path 19" d="M14.627,22.12h1.791V6.887H46.8V22.12h1.8V6.887h3.188v-3.2H10.969v3.2h3.658Z" transform="translate(33.471 11.236)" fill="#21e09d"/>
      <path id="Path_20" data-name="Path 20" d="M14.01,11.611V14.2H44.865a2.733,2.733,0,0,0-2.731-2.735,2.673,2.673,0,0,0-2.232,1.26L41.762,0H12.223l1.811,11.611ZM27.991,6.454a1.658,1.658,0,0,1,1.7,1.6,1.7,1.7,0,0,1-3.4,0,1.651,1.651,0,0,1,1.7-1.6" transform="translate(37.297)" fill="#21e09d"/>
      <path id="Path_21" data-name="Path 21" d="M25.452,22.12h1.783V6.887H57.629V22.12h1.783V6.887H62.6v-3.2H21.782v3.2h3.671Z" transform="translate(66.465 11.236)" fill="#21e09d"/>
      <path id="Path_22" data-name="Path 22" d="M24.828,11.611V14.2H55.683a2.733,2.733,0,0,0-2.731-2.735,2.686,2.686,0,0,0-2.236,1.26L52.572,0H23.037l1.807,11.611ZM38.809,6.454a1.655,1.655,0,0,1,1.693,1.6,1.7,1.7,0,0,1-3.4,0,1.647,1.647,0,0,1,1.7-1.6" transform="translate(70.295)" fill="#21e09d"/>
      <path id="Path_23" data-name="Path 23" d="M.078,16.3H3.736V31.537H5.531V16.3h30.39V31.537h1.791V16.3H40.9V13.091H.078Z" transform="translate(0.238 39.946)" fill="#21e09d"/>
      <path id="Path_24" data-name="Path 24" d="M3.116,23.612H33.975a2.725,2.725,0,0,0-2.723-2.731,2.676,2.676,0,0,0-2.236,1.256L30.868,9.408H1.333L3.144,21.019H3.116ZM17.1,15.866a1.609,1.609,0,1,1-1.7,1.6,1.658,1.658,0,0,1,1.7-1.6" transform="translate(4.068 28.708)" fill="#21e09d"/>
      <path id="Path_25" data-name="Path 25" d="M11.047,16.3h3.658V31.537H16.5V16.3H46.894V31.537H48.68V16.3h3.188V13.091H11.047Z" transform="translate(33.708 39.946)" fill="#21e09d"/>
      <path id="Path_26" data-name="Path 26" d="M14.095,23.612H44.95a2.732,2.732,0,0,0-2.731-2.731,2.682,2.682,0,0,0-2.236,1.256L41.835,9.408H12.3l1.811,11.611h-.028v2.593Zm13.977-7.746a1.609,1.609,0,1,1-1.7,1.6,1.657,1.657,0,0,1,1.7-1.6" transform="translate(37.532 28.708)" fill="#21e09d"/>
      <path id="Path_27" data-name="Path 27" d="M21.859,13.091V16.3h3.675V31.537h1.783V16.3H57.71V31.537h1.783V16.3h3.2V13.091Z" transform="translate(66.7 39.946)" fill="#21e09d"/>
      <path id="Path_28" data-name="Path 28" d="M24.909,23.612H55.76a2.728,2.728,0,0,0-2.727-2.731A2.676,2.676,0,0,0,50.8,22.137L52.645,9.408H23.114l1.811,11.611h-.032v2.593Zm13.977-7.746a1.609,1.609,0,1,1-1.7,1.6,1.658,1.658,0,0,1,1.7-1.6" transform="translate(70.53 28.708)" fill="#21e09d"/>
      <path id="Path_29" data-name="Path 29" d="M.078,25.463H3.736V40.7H5.531V25.463h30.39V40.7h1.791V25.463H40.9V22.25H.078Z" transform="translate(0.238 67.894)" fill="#21e09d"/>
      <path id="Path_30" data-name="Path 30" d="M1.334,18.568,3.145,30.179H3.113v2.6H33.972a2.726,2.726,0,0,0-2.723-2.735A2.676,2.676,0,0,0,29.013,31.3l1.851-12.729ZM17.1,28.239a1.609,1.609,0,1,1,1.7-1.608,1.657,1.657,0,0,1-1.7,1.608" transform="translate(4.071 56.658)" fill="#21e09d"/>
      <path id="Path_31" data-name="Path 31" d="M11.047,25.463h3.658V40.7H16.5V25.463H46.894V40.7H48.68V25.463h3.188V22.25H11.047Z" transform="translate(33.708 67.894)" fill="#21e09d"/>
      <path id="Path_32" data-name="Path 32" d="M12.3,18.568l1.811,11.611h-.028v2.6H44.941a2.733,2.733,0,0,0-2.731-2.735A2.682,2.682,0,0,0,39.974,31.3l1.851-12.729Zm15.76,9.671a1.609,1.609,0,1,1,1.693-1.608,1.657,1.657,0,0,1-1.693,1.608" transform="translate(37.541 56.658)" fill="#21e09d"/>
      <path id="Path_33" data-name="Path 33" d="M21.859,25.463h3.675V40.7h1.783V25.463H57.71V40.7h1.783V25.463h3.2V22.25H21.859Z" transform="translate(66.7 67.894)" fill="#21e09d"/>
      <path id="Path_34" data-name="Path 34" d="M23.116,18.568l1.807,11.611H24.9v2.6H55.75a2.729,2.729,0,0,0-2.727-2.735A2.687,2.687,0,0,0,50.787,31.3l1.851-12.729ZM38.88,28.239a1.609,1.609,0,1,1,1.7-1.608,1.659,1.659,0,0,1-1.7,1.608" transform="translate(70.536 56.658)" fill="#21e09d"/>
    </g>
  </g>
</svg>
