<svg id="Group_14" data-name="Group 14" xmlns="http://www.w3.org/2000/svg" xmlns:xlink="http://www.w3.org/1999/xlink" width="79.54" height="117.468" viewBox="0 0 79.54 117.468">
  <defs>
    <clipPath id="clip-path">
      <rect id="Rectangle_12" data-name="Rectangle 12" width="79.54" height="117.468" fill="#21e09d"/>
    </clipPath>
  </defs>
  <g id="Group_13" data-name="Group 13" clip-path="url(#clip-path)">
    <path id="Path_35" data-name="Path 35" d="M43.8,76.291c-2.9,3.2-5.587,3.3-8.6.946-1.134,3.932-2.26,7.83-3.383,11.73q-3.8,13.212-7.6,26.426c-.054.19-.11.379-.174.566a1.871,1.871,0,0,1-1.9,1.486c-.989-.039-1.419-.777-1.616-1.636-.6-2.619-1.178-5.244-1.764-7.866-.507-2.267-1.015-4.533-1.571-7.017-.421.4-.729.668-1.016.96-3.136,3.188-6.283,6.365-9.393,9.578-.772.8-1.534,1.445-2.666.8s-.959-1.657-.656-2.71Q8.544,91.845,13.614,74.126l1.362-4.749c-3.567-1.41-4.215-2.365-4.3-6.245-.074-3.56-.061-3.6-3.4-4.818-1.852-.676-3.6-1.518-4.122-3.555a7.2,7.2,0,0,1,.088-3.342,22.72,22.72,0,0,1,1.531-4.1,1.612,1.612,0,0,0-.47-2.139c-.957-.885-1.83-1.863-2.723-2.815a4.773,4.773,0,0,1,.164-7.238c.9-.873,2.281-1.665,2.509-2.7.216-.98-.792-2.229-1.262-3.36a4.872,4.872,0,0,1,2.59-6.7c1.182-.549,2.366-1.1,3.582-1.568a1.125,1.125,0,0,0,.824-1.331C9.9,18.278,9.9,17.089,9.866,15.9a4.831,4.831,0,0,1,4.632-5.14c1.5-.111,3-.25,4.5-.319a1.141,1.141,0,0,0,1.191-.888c.42-1.233.913-2.442,1.4-3.651a4.741,4.741,0,0,1,6.175-2.89c1.5.5,2.975,1.069,4.433,1.677a1.224,1.224,0,0,0,1.569-.3c.963-.994,1.981-1.936,2.992-2.883a5.148,5.148,0,0,1,7.433.148c.883.9,1.653,2.331,2.684,2.555s2.3-.781,3.469-1.234c3.058-1.181,5.595-.129,6.9,2.848.444,1.014.971,2,1.323,3.042a1.279,1.279,0,0,0,1.589.964c1.141-.109,2.291-.159,3.437-.172a4.987,4.987,0,0,1,5.26,5.062c.037,1.345.058,2.694.192,4.03a1.455,1.455,0,0,0,.713,1c1.22.556,2.5.973,3.745,1.483a4.857,4.857,0,0,1,2.843,6.509c-.512,1.369-1,2.751-1.573,4.093a1.436,1.436,0,0,0,.349,1.873c1.065,1,2.041,2.1,3.052,3.158a4.422,4.422,0,0,1-.154,6.541c-1,.958-2.557,1.8-2.807,2.927-.247,1.113.843,2.519,1.338,3.8a4.817,4.817,0,0,1-2.608,6.412c-1.221.56-2.48,1.04-3.674,1.651a1.428,1.428,0,0,0-.655,1.027c-.043,1.1.059,2.213.112,3.32.158,3.311-1.7,5.374-5.037,5.58-.156.01-.311.038-.628.078.226.821.436,1.6.656,2.379q5.543,19.557,11.1,39.111c.283.993.374,1.92-.622,2.519-1.035.622-1.886.16-2.61-.652-.132-.147-.278-.281-.417-.422q-4.536-4.614-9.074-9.226c-.3-.3-.612-.579-1.047-.988-.838,3.743-1.637,7.314-2.438,10.885-.294,1.311-.609,2.617-.884,3.932-.191.916-.5,1.689-1.612,1.721a1.888,1.888,0,0,1-1.989-1.651Q52.27,105.78,49.4,95.753,46.778,86.578,44.157,77.4c-.1-.334-.214-.661-.361-1.114M18.932,66.152c0-.014,0-.028,0-.041.791-.036,1.585-.033,2.37-.116A2.2,2.2,0,0,1,23.85,67.6c.615,1.624,1.326,3.212,2.009,4.81a1.386,1.386,0,0,0,2.1.822C29.433,72.572,30.95,72,32.413,71.3a2,2,0,0,1,2.556.5c.99,1.024,2.008,2.02,3.015,3.027,1.163,1.164,1.5,1.167,2.732-.007,1.315-1.258,2.649-2.5,3.918-3.8a2.32,2.32,0,0,1,2.79-.595c1.76.7,3.541,1.353,5.3,2.047,1.348.53,1.776.363,2.346-1.024.661-1.607,1.333-3.211,1.948-4.836a2.114,2.114,0,0,1,2.14-1.527c1.74-.025,3.479-.1,5.219-.142,1.668-.044,1.947-.326,1.912-1.952-.035-1.661-.036-3.324-.118-4.983a2,2,0,0,1,1.414-2.188c1.651-.655,3.289-1.347,4.917-2.058,1.117-.488,1.322-1.045.855-2.169-.561-1.349-1.143-2.69-1.713-4.035-.729-1.723-.686-1.959.617-3.208.971-.931,1.953-1.85,2.922-2.783,1.131-1.089,1.135-1.575.017-2.62-1.358-1.27-2.692-2.568-4.1-3.781a2.249,2.249,0,0,1-.659-2.855c.745-1.829,1.471-3.666,2.193-5.5.475-1.207.264-1.744-.916-2.243-1.673-.707-3.351-1.4-5.044-2.063a2.021,2.021,0,0,1-1.42-2.076c-.023-1.859-.111-3.717-.181-5.575-.047-1.242-.426-1.627-1.664-1.6-1.7.032-3.4.074-5.1.18A2.13,2.13,0,0,1,55.951,11.9c-.632-1.618-1.322-3.215-2.02-4.806-.495-1.129-1.032-1.343-2.157-.881-1.461.6-2.934,1.181-4.354,1.87A2.038,2.038,0,0,1,44.7,7.506c-1-1.122-2.066-2.184-3.109-3.266-.874-.906-1.378-.929-2.3-.06-1.351,1.277-2.739,2.523-4,3.883a2.56,2.56,0,0,1-3.3.6c-1.586-.707-3.209-1.333-4.815-2-1.53-.631-1.922-.475-2.516,1.027C24,9.349,23.335,11,22.712,12.661a2.09,2.09,0,0,1-2.155,1.495c-1.779.019-3.558.1-5.337.173-1.326.051-1.777.506-1.762,1.816.019,1.741.024,3.483.122,5.22A2.061,2.061,0,0,1,12.1,23.628c-1.542.609-3.066,1.265-4.593,1.915-1.4.6-1.611,1.1-1.033,2.473.6,1.42,1.184,2.845,1.828,4.244A1.958,1.958,0,0,1,7.77,34.8c-1.086.981-2.125,2.013-3.177,3.031-1.116,1.08-1.126,1.6-.018,2.646C5.9,41.728,7.2,43,8.584,44.182a2.364,2.364,0,0,1,.683,3.058c-.719,1.711-1.391,3.442-2.077,5.166-.6,1.517-.432,1.939,1.038,2.538,1.609.656,3.214,1.322,4.833,1.952A2.031,2.031,0,0,1,14.5,58.966c.024,1.938.126,3.875.183,5.812a1.24,1.24,0,0,0,1.4,1.375c.949,0,1.9,0,2.847,0M32.719,75.3c-1.341.564-2.414,1.048-3.51,1.47a4.81,4.81,0,0,1-6.276-2.5c-.546-1.14-1.085-2.289-1.523-3.472a1.438,1.438,0,0,0-1.653-1.1c-.924.049-.816.761-.959,1.254q-4.653,16.051-9.259,32.114c-.139.483-.236.977-.353,1.466l.439.376a4.61,4.61,0,0,1,.576-1.023c2.143-2.222,4.312-4.417,6.471-6.623.644-.657,1.258-1.327,2.34-1.038,1.123.3,1.2,1.243,1.392,2.126q1.109,5.119,2.211,10.241l.237.022L32.719,75.3m14.324-1.055,9.868,34.375a4.518,4.518,0,0,0,.553-1.558c.654-3.091,1.26-6.195,2-9.265a2.951,2.951,0,0,1,1.26-1.673c.757-.442,1.51.017,2.079.668.286.327.6.632.914.931,2.35,2.225,4.7,4.446,6.877,6.5L60.417,68.812l-.479.027q-.808,2.068-1.616,4.136c-1.237,3.173-3.78,4.276-6.949,3.011-1.343-.536-2.684-1.075-4.331-1.735" transform="translate(0 0)" fill="#21e09d"/>
    <path id="Path_36" data-name="Path 36" d="M85.2,57.93A25.836,25.836,0,1,1,59.469,83.563,25.929,25.929,0,0,1,85.2,57.93m22.145,25.781a22.145,22.145,0,1,0-21.907,22.316c11.873-.039,21.945-10.3,21.907-22.316" transform="translate(-45.324 -44.151)" fill="#21e09d"/>
    <path id="Path_37" data-name="Path 37" d="M121.69,126.435a1.881,1.881,0,0,1-2.858,1.888c-2.747-1.394-5.486-2.807-8.2-4.269a1.7,1.7,0,0,0-1.847.008c-2.606,1.407-5.256,2.733-7.876,4.114a2.116,2.116,0,0,1-2.439.06c-.843-.607-.811-1.406-.641-2.331q.826-4.487,1.506-9a1.892,1.892,0,0,0-.461-1.4q-3.244-3.3-6.6-6.482c-.677-.641-1.15-1.387-.689-2.169a2.782,2.782,0,0,1,1.74-1.164c2.96-.5,5.941-.875,8.921-1.237a1.694,1.694,0,0,0,1.506-1.084c1.265-2.678,2.607-5.32,3.885-7.992.4-.842.884-1.5,1.914-1.5.975,0,1.454.616,1.862,1.4,1.417,2.736,2.84,5.47,4.335,8.163a2.093,2.093,0,0,0,1.309.942c3,.477,6.034.794,9.031,1.307a2.581,2.581,0,0,1,1.75,1.254,2.331,2.331,0,0,1-.618,1.941c-2.081,2.167-4.251,4.25-6.438,6.311a1.976,1.976,0,0,0-.687,2.061c.6,3.1,1.092,6.226,1.6,9.177m-4.476-2.855c-.294-1.841-.544-3.395-.792-4.949-.645-4.055-.994-3.213,2.075-6.39,1.078-1.116,2.16-2.228,3.384-3.491-2.7-.362-5.119-.715-7.548-1a2.22,2.22,0,0,1-1.988-1.4c-.979-2.146-2.052-4.25-3.164-6.529-1.063,2.182-2.069,4.191-3.023,6.224a2.81,2.81,0,0,1-2.458,1.737c-2.332.256-4.652.624-6.681.9,1.575,1.715,3.173,3.511,4.838,5.243a2.537,2.537,0,0,1,.826,2.428c-.431,2.319-.761,4.658-1.168,7.219,2.181-1.121,4.191-2.106,6.151-3.181a3.139,3.139,0,0,1,3.337-.027c1.957,1.092,3.981,2.065,6.211,3.208" transform="translate(-69.66 -71.546)" fill="#21e09d"/>
  </g>
</svg>
