<svg xmlns="http://www.w3.org/2000/svg" xmlns:xlink="http://www.w3.org/1999/xlink" width="123" height="115" viewBox="0 0 123 115">
  <defs>
    <clipPath id="clip-path">
      <rect id="Rectangle_13" data-name="Rectangle 13" width="123" height="115" transform="translate(0.475 0.304)" fill="#21e09d"/>
    </clipPath>
  </defs>
  <g id="Group_16" data-name="Group 16" transform="translate(-0.023 0.017)">
    <g id="Group_15" data-name="Group 15" transform="translate(-0.451 -0.32)" clip-path="url(#clip-path)">
      <path id="Path_38" data-name="Path 38" d="M262.1,108.884h8.63l-.7.7a2.407,2.407,0,0,0,3.4,3.4l4.814-4.814a2.407,2.407,0,0,0,0-3.4l-4.814-4.814a2.407,2.407,0,0,0-3.4,3.4l.7.7H262.1a2.41,2.41,0,0,1-2.407-2.407,7.191,7.191,0,0,0-1.844-4.814,7.191,7.191,0,0,0,1.844-4.814,2.41,2.41,0,0,1,2.407-2.407h8.63l-.7.7a2.407,2.407,0,0,0,3.4,3.4l4.814-4.814a2.407,2.407,0,0,0,0-3.4l-4.814-4.814a2.407,2.407,0,0,0-3.4,3.4l.7.7H262.1a7.229,7.229,0,0,0-7.221,7.221,2.41,2.41,0,0,1-2.407,2.407,7.229,7.229,0,0,0-7.221,7.221v9.628a2.407,2.407,0,1,1-4.814,0,7.229,7.229,0,0,0-7.221-7.221h-4.814a2.407,2.407,0,1,0,0,4.814h4.814a2.41,2.41,0,0,1,2.407,2.407,7.221,7.221,0,1,0,14.441,0v-9.628a2.407,2.407,0,0,1,4.814,0,7.229,7.229,0,0,0,7.221,7.22" transform="translate(-170.769 -60.812)" fill="#21e09d"/>
      <path id="Path_39" data-name="Path 39" d="M69.255,29.628a9.628,9.628,0,1,0-9.628,9.628,9.638,9.638,0,0,0,9.628-9.628m-9.628,4.814a4.814,4.814,0,1,1,4.814-4.814,4.819,4.819,0,0,1-4.814,4.814" transform="translate(-37.13 -15.252)" fill="#21e09d"/>
      <path id="Path_40" data-name="Path 40" d="M192.476,420H178.034A12.048,12.048,0,0,0,166,432.034a2.407,2.407,0,0,0,2.407,2.407h33.7a2.407,2.407,0,0,0,2.407-2.407A12.048,12.048,0,0,0,192.476,420m-21.249,9.628a7.233,7.233,0,0,1,6.808-4.814h14.441a7.233,7.233,0,0,1,6.808,4.814Z" transform="translate(-125.211 -318.976)" fill="#21e09d"/>
      <path id="Path_41" data-name="Path 41" d="M225.255,349.628a9.628,9.628,0,1,0-9.628,9.628,9.638,9.638,0,0,0,9.628-9.628m-9.628,4.814a4.814,4.814,0,1,1,4.814-4.814,4.819,4.819,0,0,1-4.814,4.814" transform="translate(-155.583 -258.231)" fill="#21e09d"/>
      <path id="Path_42" data-name="Path 42" d="M378.476,420H364.034A12.048,12.048,0,0,0,352,432.034a2.407,2.407,0,0,0,2.407,2.407h33.7a2.407,2.407,0,0,0,2.407-2.407A12.048,12.048,0,0,0,378.476,420m-21.249,9.628a7.233,7.233,0,0,1,6.808-4.814h14.441a7.233,7.233,0,0,1,6.808,4.814Z" transform="translate(-266.443 -318.976)" fill="#21e09d"/>
      <path id="Path_43" data-name="Path 43" d="M411.255,349.628a9.628,9.628,0,1,0-9.628,9.628,9.638,9.638,0,0,0,9.628-9.628m-9.628,4.814a4.814,4.814,0,1,1,4.814-4.814,4.819,4.819,0,0,1-4.814,4.814" transform="translate(-296.815 -258.231)" fill="#21e09d"/>
      <path id="Path_44" data-name="Path 44" d="M120.825,0H40.917A2.407,2.407,0,0,0,38.51,2.407V24.069H12.034A12.048,12.048,0,0,0,0,36.1V60.172A12.055,12.055,0,0,0,9.628,71.965v41.159a2.407,2.407,0,0,0,2.407,2.407H31.289a2.407,2.407,0,0,0,2.407-2.407V38.51H38.51v36.1a2.407,2.407,0,0,0,2.407,2.407H70.04a2.407,2.407,0,0,0,0-4.814H43.324V38.51H61.616A12.048,12.048,0,0,0,73.651,26.476a2.407,2.407,0,0,0-2.407-2.407H43.324V4.814h75.095V72.206H91.7a2.407,2.407,0,0,0,0,4.814h29.123a2.407,2.407,0,0,0,2.407-2.407V2.407A2.407,2.407,0,0,0,120.825,0M61.616,33.7H31.289A2.407,2.407,0,0,0,28.883,36.1v74.613H24.069V69.8a2.407,2.407,0,0,0-4.814,0v40.917H14.441v-69.8a2.407,2.407,0,0,0-4.814,0V66.979a7.232,7.232,0,0,1-4.814-6.807V36.1a7.232,7.232,0,0,1,7.221-7.223h56.39A7.232,7.232,0,0,1,61.616,33.7" transform="translate(0.835 -0.065)" fill="#21e09d"/>
      <path id="Path_45" data-name="Path 45" d="M328.407,300A2.407,2.407,0,1,1,326,302.407,2.407,2.407,0,0,1,328.407,300" transform="translate(-246.701 -227.859)" fill="#21e09d"/>
    </g>
  </g>
</svg>
