<svg id="Group_21" data-name="Group 21" xmlns="http://www.w3.org/2000/svg" xmlns:xlink="http://www.w3.org/1999/xlink" width="70.517" height="111.058" viewBox="0 0 70.517 111.058">
  <defs>
    <clipPath id="clip-path">
      <rect id="Rectangle_18" data-name="Rectangle 18" width="70.517" height="111.059" fill="#21e09d"/>
    </clipPath>
  </defs>
  <g id="Group_20" data-name="Group 20" clip-path="url(#clip-path)">
    <path id="Path_48" data-name="Path 48" d="M67.9,44.4a2.612,2.612,0,0,0-2.607,2.612V62.022a7.83,7.83,0,0,1-6.476,7.7c-.823-2.129-3.766-3.613-7.895-3.613H39.285l.157-1.52c.061-.662.093-1.283.093-1.914H50.925A9.477,9.477,0,0,0,60.51,52.269L57.017,10.41A11.589,11.589,0,0,0,45.7,0H24.807A11.594,11.594,0,0,0,13.488,10.409L10,52.267A9.473,9.473,0,0,0,19.58,62.673H30.972a18.1,18.1,0,0,0,.1,1.915l.157,1.52H19.584c-4.123,0-7.07,1.485-7.891,3.613a7.841,7.841,0,0,1-6.476-7.7V47.014a2.608,2.608,0,1,0-5.217,0V62.026A13.081,13.081,0,0,0,13.061,75.1h.716a17.739,17.739,0,0,0,11.035,3.745H32.5l1.388,13.882H27.012c-6.375,0-12.649,3.582-14.289,8.152L10.8,106.248c-1.489.2-2.643,1.153-2.643,2.361,0,1.351,1.428,2.45,3.182,2.45s3.184-1.1,3.184-2.45a2.235,2.235,0,0,0-1.141-1.831l1.794-5.022c1.247-3.487,6.664-6.417,11.829-6.417h6.948v11.056a2.5,2.5,0,0,0-1.873,2.214c0,1.351,1.43,2.45,3.178,2.45s3.184-1.087,3.184-2.45a2.5,2.5,0,0,0-1.88-2.214V95.339h6.95c5.162,0,10.583,2.944,11.825,6.417l1.8,5.022a2.243,2.243,0,0,0-1.143,1.831c0,1.351,1.43,2.45,3.184,2.45s3.184-1.1,3.184-2.45c0-1.208-1.15-2.165-2.644-2.361L57.8,100.875c-1.641-4.579-7.92-8.152-14.288-8.152H36.622l1.391-13.882h7.693A17.7,17.7,0,0,0,56.734,75.1h.715a13.084,13.084,0,0,0,13.068-13.07V47.014A2.629,2.629,0,0,0,67.9,44.4m-45.3-24.812H47.9a1.306,1.306,0,1,1,0,2.611H22.606a1.306,1.306,0,0,1,0-2.611m0,7.835H47.9a1.306,1.306,0,1,1,0,2.611H22.606a1.306,1.306,0,0,1,0-2.611m0,10.455a1.3,1.3,0,0,1,0-2.609H47.9a1.3,1.3,0,1,1,0,2.609Z" fill="#21e09d"/>
  </g>
</svg>
