<svg xmlns="http://www.w3.org/2000/svg" width="33.049" height="33.049" viewBox="0 0 33.049 33.049">
  <g id="Group_37" data-name="Group 37" transform="translate(0.216 0.216)">
    <path id="Path_53" data-name="Path 53" d="M16.525,222.291h0a16.307,16.307,0,1,1,12.749-6.137A16.309,16.309,0,0,1,16.525,222.291Z" transform="translate(-0.216 -189.674)" fill="none" stroke="#21e09d" stroke-miterlimit="10" stroke-width="0.432"/>
    <path id="Path_54" data-name="Path 54" d="M20.082,203.04c2.117,0,2.367.008,3.2.046a4.381,4.381,0,0,1,1.473.273,2.623,2.623,0,0,1,1.5,1.5,4.376,4.376,0,0,1,.273,1.472c.038.836.046,1.087.046,3.2s-.008,2.368-.046,3.2a4.381,4.381,0,0,1-.273,1.473,2.628,2.628,0,0,1-1.5,1.5,4.381,4.381,0,0,1-1.473.273c-.836.038-1.086.046-3.2.046s-2.368-.008-3.2-.046a4.372,4.372,0,0,1-1.472-.273,2.627,2.627,0,0,1-1.505-1.5,4.381,4.381,0,0,1-.273-1.473c-.038-.836-.046-1.086-.046-3.2s.008-2.368.046-3.2a4.376,4.376,0,0,1,.273-1.472,2.622,2.622,0,0,1,1.505-1.5,4.372,4.372,0,0,1,1.472-.273c.836-.039,1.087-.046,3.2-.046m0-1.429c-2.153,0-2.423.009-3.269.048a5.818,5.818,0,0,0-1.924.369,4.056,4.056,0,0,0-2.319,2.319,5.831,5.831,0,0,0-.369,1.925c-.039.846-.048,1.115-.048,3.269s.009,2.424.048,3.269a5.83,5.83,0,0,0,.369,1.925,4.056,4.056,0,0,0,2.319,2.319,5.818,5.818,0,0,0,1.924.369c.846.039,1.116.048,3.269.048s2.423-.009,3.269-.048a5.818,5.818,0,0,0,1.924-.369,4.056,4.056,0,0,0,2.319-2.319,5.83,5.83,0,0,0,.369-1.925c.039-.845.048-1.115.048-3.269s-.009-2.423-.048-3.269a5.831,5.831,0,0,0-.369-1.925,4.056,4.056,0,0,0-2.319-2.319,5.818,5.818,0,0,0-1.924-.369c-.846-.039-1.115-.048-3.269-.048" transform="translate(-3.773 -193.231)" fill="#21e09d"/>
    <path id="Path_55" data-name="Path 55" d="M21.72,207.106a4.071,4.071,0,1,0,4.072,4.071,4.071,4.071,0,0,0-4.072-4.071m0,6.714a2.643,2.643,0,1,1,2.643-2.643,2.644,2.644,0,0,1-2.643,2.643" transform="translate(-5.411 -194.869)" fill="#21e09d"/>
    <path id="Path_56" data-name="Path 56" d="M30.024,206.473a.952.952,0,1,1-.951-.951.951.951,0,0,1,.951.951" transform="translate(-8.532 -194.397)" fill="#21e09d"/>
  </g>
</svg>
