<svg xmlns="http://www.w3.org/2000/svg" width="24.424" height="29.745" viewBox="0 0 24.424 29.745">
  <path id="Path_58" data-name="Path 58" d="M228.359,0a12.223,12.223,0,0,1,11.519,16.248,22.375,22.375,0,0,1-5.971,9.02c-1.544,1.5-3.27,2.808-4.917,4.2a.88.88,0,0,1-1.192.083,32.124,32.124,0,0,1-9.753-10.414,13.2,13.2,0,0,1-1.476-10.213A12.189,12.189,0,0,1,228.359,0m-.017,17.532A5.335,5.335,0,1,0,223,12.158a5.328,5.328,0,0,0,5.346,5.374" transform="translate(-216.11 0)" fill="#21e09d"/>
</svg>
