<svg xmlns="http://www.w3.org/2000/svg" width="19.803" height="18.311" viewBox="0 0 19.803 18.311">
  <path id="Path_57" data-name="Path 57" d="M206.819,13.8c-.494-.241-2.884-1.414-3.331-1.573s-.773-.241-1.1.242-1.265,1.573-1.544,1.889-.567.363-1.061.121a13.169,13.169,0,0,1-3.917-2.4,14.477,14.477,0,0,1-2.707-3.339c-.279-.484-.028-.745.213-.987.223-.222.484-.567.736-.847.065-.084.12-.158.176-.232a5.3,5.3,0,0,0,.307-.577.874.874,0,0,0-.037-.847c-.121-.242-1.1-2.624-1.508-3.591s-.808-.8-1.1-.8-.605-.046-.93-.046a1.8,1.8,0,0,0-1.3.6,5.416,5.416,0,0,0-1.7,4.038,6.166,6.166,0,0,0,.252,1.647,11,11,0,0,0,1.74,3.35c.241.316,3.367,5.358,8.317,7.3,4.959,1.926,4.959,1.284,5.853,1.2s2.884-1.163,3.283-2.3a3.994,3.994,0,0,0,.288-2.3c-.121-.195-.446-.316-.93-.558" transform="translate(-188.016 -0.81)" fill="#21e09d" fill-rule="evenodd"/>
</svg>
