<svg xmlns="http://www.w3.org/2000/svg" width="33.049" height="33.049" viewBox="0 0 33.049 33.049">
  <g id="Group_36" data-name="Group 36" transform="translate(0.216 0.216)">
    <path id="Path_59" data-name="Path 59" d="M87.283,245.522h0a16.309,16.309,0,1,1,16.308-16.308A16.308,16.308,0,0,1,87.283,245.522Z" transform="translate(-70.975 -212.905)" fill="none" stroke="#21e09d" stroke-miterlimit="10" stroke-width="0.432"/>
    <path id="Path_62" data-name="Path 62" d="M97.751,225.581c-3.184,1.281-13.459,5.564-17.348,7.186a.6.6,0,0,0,.053,1.118l4.46,1.391,10-6.062a.06.06,0,0,1,.072.094l-7.644,7.266s4.7,3.442,6.929,5.068a.924.924,0,0,0,1.453-.576c.641-3.412,2.244-11.942,2.791-14.858a.565.565,0,0,0-.765-.629" transform="translate(-73.675 -216.67)" fill="#21e09d"/>
  </g>
</svg>
